# xmcd
#
# Track frame offsets: 
#        150
#        13175
#        30618
#        38317
#        54573
#        68514
#        82890
#        87705
#        100702
#        114886
#        130687
#        146270
#        158386
#        171294
#        192242
#        209888
#        224071
#        241203
#        253568
#
# Disc length: 3577 seconds
#
# Revision: 0
# Processed by: cddbd v1.5.2PL0 Copyright (c) Steve Scherf et al.
# Submitted via: ExactAudioCopy v0.99pb5
#
DISCID=f90df713
DTITLE=Diana Jones - Live In Concert
DYEAR=2016
DGENRE=Country
TTITLE0=Willow Tree
TTITLE1=My Beloved
TTITLE2=Cold Grey Ground
TTITLE3=I Told The Man
TTITLE4=Evangelina
TTITLE5=The Day I Die
TTITLE6=Intro Appalachia
TTITLE7=Appalachia
TTITLE8=All My Money On You
TTITLE9=Drug For This
TTITLE10=Prayer For My Brother
TTITLE11=Happiness
TTITLE12=Rain And Cold
TTITLE13=Pony
TTITLE14=Lay Me Down
TTITLE15=Don't Forget Me
TTITLE16=Henry Russell's Last Words
TTITLE17=Better Times Will Come
TTITLE18=My Last Call
EXTD=
EXTT0=
EXTT1=
EXTT2=
EXTT3=
EXTT4=
EXTT5=
EXTT6=
EXTT7=
EXTT8=
EXTT9=
EXTT10=
EXTT11=
EXTT12=
EXTT13=
EXTT14=
EXTT15=
EXTT16=
EXTT17=
EXTT18=
PLAYORDER=
